<svg width="15" height="9" viewBox="0 0 15 9" fill="none" xmlns="http://www.w3.org/2000/svg">
<path d="M14.4139 1.20103C14.449 1.48203 14.3902 1.75767 14.2479 1.99548L8.13079 8.24557C7.8996 8.47979 7.60261 8.60683 7.30004 8.62615C7.04003 8.64275 6.77601 8.57992 6.5464 8.43768L0.37963 2.24126C0.126419 1.98471 8.4877e-05 1.64839 8.4877e-05 1.31221C8.4877e-05 0.97604 0.126419 0.639728 0.37963 0.383181C0.610802 0.14896 0.907793 0.021922 1.21037 0.0026025C1.47038 -0.0139995 1.73441 0.048841 1.96402 0.191085L7.2185 5.46266L12.2323 0.383183C12.4635 0.148961 12.7605 0.021922 13.0631 0.00260247C13.3631 -0.0165515 13.6684 0.070022 13.92 0.262359C14.2142 0.557632 14.3741 0.881528 14.4139 1.20103Z" fill="black"/>
</svg>
