<svg width="14" height="11" viewBox="0 0 14 11" fill="none" xmlns="http://www.w3.org/2000/svg">
<path fill-rule="evenodd" clip-rule="evenodd" d="M8.21791 0C8.44083 0 8.66338 0.0769179 8.84048 0.224428L13.2522 4.72818C13.4461 4.92648 13.5489 5.1935 13.5489 5.4622C13.5489 5.71286 13.46 5.94549 13.3213 6.11829L8.92179 10.6248C8.72715 10.8238 8.47281 10.9244 8.21791 10.9244C7.96301 10.9244 7.70867 10.8238 7.51403 10.6248C7.31556 10.4218 7.21696 10.1561 7.21696 9.89074C7.21696 9.65853 7.29244 9.42607 7.43945 9.24111L10.1159 6.4955H1.00058C0.725398 6.4955 0.476601 6.38075 0.296353 6.19642C0.112732 6.00863 0 5.74892 0 5.4622C0 5.17548 0.112732 4.91577 0.296353 4.72799C0.453245 4.56754 0.662051 4.45979 0.895022 4.43458L10.1162 4.4288L7.51403 1.76769C7.31556 1.56472 7.21696 1.29903 7.21696 1.03367C7.21696 0.768304 7.31556 0.502616 7.51403 0.299644C7.70867 0.100597 7.96301 0 8.21791 0Z" fill="white"/>
</svg>
