<svg width="17" height="10" viewBox="0 0 17 10" fill="none" xmlns="http://www.w3.org/2000/svg">
<path d="M16.5541 8.53079C16.5943 8.20808 16.5268 7.8915 16.3634 7.61838L9.33798 0.440262C9.07248 0.171264 8.73138 0.025361 8.38388 0.00317218C8.08527 -0.0158951 7.78205 0.0562726 7.51834 0.219628L0.435916 7.33611C0.145109 7.63075 1.59467e-05 8.01701 1.58792e-05 8.4031C1.58117e-05 8.78919 0.145107 9.17544 0.435916 9.47008C0.701412 9.73908 1.0425 9.88498 1.39 9.90716C1.68863 9.92623 1.99186 9.85406 2.25556 9.6907L8.29024 3.63639L14.0485 9.47008C14.314 9.73908 14.6551 9.88498 15.0026 9.90717C15.3471 9.92917 15.6978 9.82974 15.9868 9.60884C16.3247 9.26973 16.5083 8.89774 16.5541 8.53079Z" fill="black"/>
</svg>
