<svg width="15" height="15" viewBox="0 0 15 15" fill="none" xmlns="http://www.w3.org/2000/svg">
<path d="M7.19777 1.79997C10.1753 1.79997 12.5978 4.22241 12.5978 7.19997C12.5978 10.1775 10.1753 12.6 7.19777 12.6C4.22021 12.6 1.79777 10.1775 1.79777 7.19997C1.79777 4.22241 4.22021 1.79997 7.19777 1.79997ZM7.19777 0.719971C3.61919 0.719971 0.717773 3.62139 0.717773 7.19997C0.717773 10.7786 3.61919 13.68 7.19777 13.68C10.7764 13.68 13.6778 10.7786 13.6778 7.19997C13.6778 3.62139 10.7764 0.719971 7.19777 0.719971ZM7.73777 7.19997V4.49997C7.73777 4.20174 7.49601 3.95997 7.19777 3.95997C6.89954 3.95997 6.65777 4.20174 6.65777 4.49997V7.27997C6.65777 7.83226 7.10549 8.27997 7.65777 8.27997H9.89777C10.196 8.27997 10.4378 8.0382 10.4378 7.73997C10.4378 7.44174 10.196 7.19997 9.89777 7.19997H7.73777Z" fill="white"/>
</svg>
