<svg width="20" height="20" viewBox="0 0 20 20" fill="none" xmlns="http://www.w3.org/2000/svg">
<path fill-rule="evenodd" clip-rule="evenodd" d="M0.735 18.735C1.22417 19.2242 1.8125 19.4688 2.5 19.4688H17.5C18.1875 19.4688 18.7763 19.2242 19.2663 18.735C19.7554 18.245 20 17.6563 20 16.9688V14.4688C20 14.1146 19.88 13.8175 19.64 13.5775C19.4008 13.3383 19.1042 13.2188 18.75 13.2188C18.3958 13.2188 18.0992 13.3383 17.86 13.5775C17.62 13.8175 17.5 14.1146 17.5 14.4688V16.9688H2.5V14.4688C2.5 14.1146 2.38042 13.8175 2.14125 13.5775C1.90125 13.3383 1.60417 13.2188 1.25 13.2188C0.895833 13.2188 0.59875 13.3383 0.35875 13.5775C0.119583 13.8175 0 14.1146 0 14.4688V16.9688C0 17.6563 0.245 18.245 0.735 18.735Z" fill="black"/>
<path d="M10.89 0.359998C10.6508 0.119999 10.3541 -4.70357e-07 9.99995 -5.01319e-07C9.64578 -5.32282e-07 9.3487 0.119999 9.1087 0.359998C8.86954 0.599166 8.74995 0.895832 8.74995 1.25L8.74995 10.1875L6.4062 7.84375C6.1562 7.59375 5.85912 7.47417 5.51495 7.485C5.17162 7.495 4.87495 7.625 4.62495 7.875C4.39578 8.10417 4.2762 8.39083 4.2662 8.735C4.25537 9.07833 4.37495 9.375 4.62495 9.625L9.12495 14.125C9.24995 14.25 9.38537 14.3387 9.5312 14.3912C9.67703 14.4429 9.83328 14.4687 9.99995 14.4687C10.1666 14.4687 10.3229 14.4429 10.4687 14.3912C10.6145 14.3387 10.75 14.25 10.875 14.125L15.375 9.625C15.6041 9.39583 15.7237 9.10958 15.7337 8.76625C15.7445 8.42208 15.625 8.125 15.375 7.875C15.1041 7.60417 14.802 7.46875 14.4687 7.46875C14.1354 7.46875 13.8437 7.59375 13.5937 7.84375L11.25 10.1875L11.25 1.25C11.25 0.895833 11.13 0.599166 10.89 0.359998Z" fill="black"/>
</svg>
