<svg xmlns="http://www.w3.org/2000/svg" width="26" height="23" viewBox="0 0 26 23" fill="none">
  <path d="M18.9919 5.99997C19.0206 6.23392 18.9724 6.46342 18.8557 6.66142L13.8375 11.8652C13.6479 12.0602 13.4043 12.166 13.156 12.182C12.9427 12.1959 12.7262 12.1435 12.5378 12.0251L7.47892 6.86605C7.2712 6.65244 7.16756 6.37243 7.16756 6.09254C7.16756 5.81264 7.2712 5.53263 7.47892 5.31903C7.66856 5.12402 7.91219 5.01825 8.16041 5.00217C8.37371 4.98834 8.5903 5.04066 8.77867 5.1591L13.0892 9.54815L17.2022 5.31903C17.3919 5.12402 17.6355 5.01825 17.8837 5.00217C18.1298 4.98622 18.3803 5.0583 18.5867 5.21844C18.828 5.46428 18.9592 5.73395 18.9919 5.99997Z" fill="#E1DBEE" fill-opacity="0.6"/>
</svg>