<svg width="20" height="20" viewBox="0 0 20 20" fill="none" xmlns="http://www.w3.org/2000/svg">
<path fill-rule="evenodd" clip-rule="evenodd" d="M15.333 11.1601C15.333 11.3724 15.2598 11.5843 15.1193 11.753V11.753L10.83 15.9546C10.6411 16.1393 10.3868 16.2372 10.1309 16.2372C9.89219 16.2372 9.67063 16.1525 9.50606 16.0205V16.0205L5.21419 11.8304C5.02462 11.6451 4.92881 11.4028 4.92881 11.1601C4.92881 10.9173 5.02462 10.6751 5.21419 10.4897C5.40749 10.3007 5.66053 10.2068 5.91326 10.2068C6.13441 10.2068 6.3558 10.2787 6.53195 10.4187V10.4187L9.14682 12.9677L9.14682 4.28643C9.14682 4.02435 9.2561 3.7874 9.43166 3.61574C9.6105 3.44086 9.85784 3.3335 10.1309 3.3335C10.404 3.3335 10.6513 3.44086 10.8302 3.61574C10.983 3.76516 11.0856 3.96402 11.1096 4.1859V4.1859L11.1151 12.9679L13.6495 10.4897C13.8428 10.3007 14.0958 10.2068 14.3486 10.2068C14.6013 10.2068 14.8543 10.3007 15.0476 10.4897C15.2372 10.6751 15.333 10.9173 15.333 11.1601Z" fill="black"/>
</svg>
