<svg xmlns="http://www.w3.org/2000/svg" width="22" height="22" viewBox="0 0 22 22" fill="none">
  <g filter="url(#filter0_d_7831_9259)">
    <path d="M16.2002 12.5498C16.346 12.0404 17.0681 12.0404 17.2139 12.5498L17.6025 13.9102C17.6271 13.9962 17.673 14.0754 17.7363 14.1387C17.7996 14.2018 17.8779 14.2479 17.9639 14.2725L19.3252 14.6611C19.8342 14.8071 19.8343 15.5289 19.3252 15.6748L17.9639 16.0635C17.8779 16.0881 17.7996 16.134 17.7363 16.1973C17.6731 16.2605 17.6272 16.3388 17.6025 16.4248L17.2139 17.7861C17.0679 18.2951 16.3462 18.295 16.2002 17.7861L15.8115 16.4248C15.7869 16.3388 15.7409 16.2605 15.6777 16.1973C15.6146 16.1341 15.5361 16.0881 15.4502 16.0635L14.0889 15.6748C13.5795 15.529 13.5796 14.807 14.0889 14.6611L15.4502 14.2725C15.5361 14.2478 15.6145 14.2019 15.6777 14.1387C15.741 14.0754 15.7869 13.9962 15.8115 13.9102L16.2002 12.5498ZM7.67773 3.33105C8.00973 2.17105 9.65433 2.17105 9.98633 3.33105L10.8711 6.42969C10.9271 6.62559 11.0318 6.80413 11.1758 6.94824C11.32 7.09241 11.4993 7.19787 11.6953 7.25391L14.7939 8.13867C15.9538 8.47068 15.9538 10.1142 14.7939 10.4463L11.6953 11.332C11.4993 11.3881 11.32 11.4925 11.1758 11.6367C11.0318 11.7808 10.9272 11.9594 10.8711 12.1553L9.98633 15.2549C9.65433 16.4148 8.00979 16.4148 7.67773 15.2549L6.79297 12.1553C6.73691 11.9594 6.63138 11.7808 6.4873 11.6367C6.34319 11.4927 6.16465 11.388 5.96875 11.332L2.87012 10.4463C1.71012 10.1143 1.71012 8.47067 2.87012 8.13867L5.96875 7.25391C6.16477 7.19788 6.34314 7.09239 6.4873 6.94824C6.63148 6.80407 6.73693 6.62572 6.79297 6.42969L7.67773 3.33105ZM16.2012 1.25488C16.2984 0.915304 16.7798 0.915304 16.877 1.25488L17.1357 2.16211C17.1522 2.21935 17.1835 2.27136 17.2256 2.31348C17.2678 2.3556 17.3196 2.38694 17.377 2.40332L18.2842 2.66211C18.6238 2.7593 18.6238 3.2407 18.2842 3.33789L17.377 3.59668C17.3196 3.61309 17.2678 3.64434 17.2256 3.68652C17.1834 3.72872 17.1521 3.78052 17.1357 3.83789L16.877 4.74512C16.7798 5.08469 16.2984 5.08468 16.2012 4.74512L15.9424 3.83789C15.926 3.78057 15.8947 3.7287 15.8525 3.68652C15.8104 3.6444 15.7584 3.61311 15.7012 3.59668L14.7939 3.33789C14.4544 3.2407 14.4544 2.7593 14.7939 2.66211L15.7012 2.40332C15.7585 2.38691 15.8104 2.35561 15.8525 2.31348C15.8947 2.27135 15.926 2.21938 15.9424 2.16211L16.2012 1.25488Z" fill="white"/>
  </g>
  <defs>
    <filter id="filter0_d_7831_9259" x="0" y="0" width="21.707" height="21.168" filterUnits="userSpaceOnUse" color-interpolation-filters="sRGB">
      <feFlood flood-opacity="0" result="BackgroundImageFix"/>
      <feColorMatrix in="SourceAlpha" type="matrix" values="0 0 0 0 0 0 0 0 0 0 0 0 0 0 0 0 0 0 127 0" result="hardAlpha"/>
      <feOffset dy="1"/>
      <feGaussianBlur stdDeviation="1"/>
      <feComposite in2="hardAlpha" operator="out"/>
      <feColorMatrix type="matrix" values="0 0 0 0 0 0 0 0 0 0 0 0 0 0 0 0 0 0 0.25 0"/>
      <feBlend mode="normal" in2="BackgroundImageFix" result="effect1_dropShadow_7831_9259"/>
      <feBlend mode="normal" in="SourceGraphic" in2="effect1_dropShadow_7831_9259" result="shape"/>
    </filter>
  </defs>
</svg>
