<svg width="32" height="32" viewBox="0 0 32 32" fill="none" xmlns="http://www.w3.org/2000/svg">
<path d="M9.58203 22.9268C9.91297 21.9603 11.1835 21.8735 11.6855 22.6641L11.7754 22.835L11.7793 22.8438L11.8086 22.9209L11.8105 22.9277L12.1992 24.0654C12.2785 24.2972 12.4071 24.5093 12.5752 24.6875C12.7429 24.8652 12.9467 25.0061 13.1729 25.0986L13.2695 25.1338L14.4062 25.5234C15.4377 25.8761 15.4667 27.2987 14.499 27.7168L14.4902 27.7217L14.4131 27.75L14.4062 27.7529L13.2695 28.1406C13.0377 28.2198 12.8238 28.3486 12.6455 28.5166C12.4674 28.6847 12.327 28.8905 12.2344 29.1172L12.1973 29.2158L11.8105 30.3486V30.3496C11.4576 31.3805 10.0347 31.4094 9.61719 30.4414L9.61426 30.4336L9.58398 30.3564L9.58008 30.3496L9.78223 30.2793L9.39453 29.1426V29.1416L9.78223 30.2793L9.58203 30.3486L9.19238 29.2109C9.11313 28.9789 8.98562 28.7653 8.81738 28.5869C8.64905 28.4086 8.44292 28.2693 8.21582 28.1768V28.1758L8.12305 28.1406L6.98535 27.7529C5.95349 27.4003 5.92391 25.9761 6.89258 25.5586L6.90039 25.5557L6.97754 25.5254L6.98535 25.5225L8.12305 25.1338C8.35475 25.0545 8.56795 24.9268 8.74609 24.7588C8.92427 24.5905 9.06475 24.3842 9.15723 24.1572L9.19238 24.0654L9.58203 22.9268ZM10.2627 28.7109L10.3066 28.8311L10.6953 29.9697L10.6963 29.9678L10.3076 28.8311L10.2637 28.71C10.2574 28.6941 10.2487 28.6788 10.2422 28.6631C10.2488 28.679 10.2564 28.6949 10.2627 28.7109ZM10.5098 24.5137C10.364 24.9408 10.1254 25.3329 9.81348 25.6592C9.50174 25.9849 9.1219 26.2387 8.70215 26.4033L8.69727 26.4053L8.57617 26.4492L8.57227 26.4512V26.4502L8.02539 26.6367L8.57227 26.8242C8.99952 26.97 9.39054 27.2085 9.7168 27.5205C10.0428 27.8324 10.2973 28.2118 10.4619 28.6318L10.4639 28.6367L10.5078 28.7578L10.5098 28.7607H10.5088L10.6953 29.3076L10.8828 28.7607C11.0286 28.334 11.2655 27.9432 11.5771 27.6172C11.8891 27.2912 12.2694 27.0357 12.6895 26.8711L12.6953 26.8691L12.8164 26.8262L12.8193 26.8252L13.3672 26.6377L12.8193 26.4502C12.3923 26.3044 12.0019 26.0677 11.6758 25.7559C11.3497 25.4439 11.0944 25.0647 10.9297 24.6445L10.9277 24.6377L10.8848 24.5166L10.8838 24.5137L10.6963 23.9648L10.5098 24.5137ZM12.0361 29.0381L12.0186 29.084L12.0371 29.0371C12.0407 29.0284 12.0452 29.0194 12.0488 29.0107C12.045 29.0198 12.0399 29.029 12.0361 29.0381ZM11.7314 27.7646L11.626 27.8818C11.6216 27.887 11.6176 27.8932 11.6133 27.8984C11.6514 27.8534 11.6906 27.8084 11.7314 27.7656C11.7458 27.7507 11.7617 27.7363 11.7764 27.7217C11.7619 27.7362 11.7457 27.7499 11.7314 27.7646ZM9.67969 27.7871C9.68566 27.7935 9.69135 27.8002 9.69727 27.8066C9.69119 27.8 9.68583 27.7927 9.67969 27.7861L9.56934 27.6748L9.67969 27.7871ZM12.8877 27.0264L12.7676 27.0703L12.623 27.1318C12.6157 27.1352 12.6079 27.1391 12.6006 27.1426C12.6551 27.1172 12.7114 27.0933 12.7676 27.0713L12.8877 27.0283L14.0264 26.6387L14.0244 26.6377L12.8877 27.0264ZM7.36523 26.6387L8.50293 27.0273C8.56825 27.0496 8.63293 27.0757 8.69629 27.1025C8.6812 27.0962 8.66656 27.0882 8.65137 27.082L8.50391 27.0264L7.36621 26.6377L7.36523 26.6387ZM14.8662 26.1631C14.8875 26.2017 14.9062 26.2414 14.9219 26.2822L14.8672 26.1631C14.846 26.1245 14.8217 26.0874 14.7949 26.0518L14.8662 26.1631ZM13.0947 25.2979L13.1992 25.3369L14.3379 25.7256C14.4861 25.7763 14.6088 25.8544 14.7061 25.9502L14.6006 25.8604C14.5244 25.805 14.4369 25.7585 14.3379 25.7246L13.2002 25.3359L13.0947 25.2969C13.0766 25.2895 13.0589 25.2804 13.041 25.2725C13.059 25.2805 13.0764 25.2904 13.0947 25.2979ZM8.89258 24.9131C8.69238 25.102 8.45375 25.2468 8.19336 25.3359L7.05469 25.7246L6.97754 25.7549C6.93314 25.774 6.89142 25.7969 6.85254 25.8213L6.97754 25.7559L7.05469 25.7256L8.19238 25.3369C8.453 25.2477 8.69224 25.1041 8.89258 24.915C8.91527 24.8935 8.93543 24.8682 8.95703 24.8457C8.93575 24.8678 8.91492 24.8919 8.89258 24.9131ZM12.0879 24.3535C12.1735 24.5298 12.2848 24.6927 12.4199 24.8359C12.503 24.924 12.5949 25.0026 12.6924 25.0732C12.6504 25.0428 12.6098 25.0103 12.5703 24.9766L12.4199 24.835C12.2851 24.6921 12.1734 24.5296 12.0879 24.3535ZM10.3066 24.4463C10.2961 24.4773 10.284 24.5084 10.2725 24.5391C10.2842 24.5081 10.2969 24.4767 10.3076 24.4453L10.6953 23.3086L10.3066 24.4463ZM14.5547 21.1191C14.6844 21.1193 14.8118 21.156 14.9219 21.2246C15.0321 21.2934 15.1215 21.3921 15.1787 21.5088L15.1846 21.5215L14.9863 21.6025C14.9466 21.5218 14.8849 21.4529 14.8086 21.4053C14.7987 21.3991 14.7876 21.395 14.7773 21.3896C14.7879 21.3952 14.7985 21.4009 14.8086 21.4072C14.885 21.4549 14.9466 21.5236 14.9863 21.6045L15.0098 21.6602L15.1787 22.1553L15.6738 22.3242C15.7075 22.3357 15.7395 22.3518 15.7695 22.3701C15.7596 22.364 15.7506 22.356 15.7402 22.3506L15.6738 22.3232L15.1797 22.1533L15.0098 21.6592L14.9863 21.6025L15.1846 21.5225L15.208 21.5781L15.2129 21.5898H15.2119L15.3457 21.9854L15.7432 22.1211L15.8379 22.1611C15.9287 22.208 16.0086 22.2747 16.0713 22.3564C16.1548 22.4655 16.2039 22.5973 16.2129 22.7344C16.2217 22.8715 16.1899 23.01 16.1211 23.1289C16.0521 23.2477 15.9485 23.3438 15.8252 23.4043L15.8115 23.4111V23.4102L15.7549 23.4336L15.7432 23.4375L15.3477 23.5723L15.2129 23.9688C15.1686 24.0986 15.0854 24.2133 14.9766 24.2969C14.8675 24.3802 14.7356 24.4296 14.5986 24.4385C14.4612 24.4472 14.3232 24.4158 14.2041 24.3467C14.0853 24.2776 13.9902 24.1741 13.9297 24.0508L13.9229 24.0381L14.1211 23.957L13.9229 24.0371L13.9004 23.9805L13.8955 23.9688V23.9678L13.7607 23.5723L13.3652 23.4375C13.235 23.3932 13.1208 23.3114 13.0371 23.2021C12.9535 23.0929 12.9044 22.9615 12.8955 22.8242C12.8868 22.6872 12.9175 22.5495 12.9863 22.4307C13.0554 22.3119 13.1589 22.2148 13.2822 22.1543L13.2959 22.1484L13.3535 22.125L13.3652 22.1211L13.7598 21.9854L13.8955 21.5898C13.9425 21.4528 14.0316 21.3333 14.1494 21.249C14.2674 21.1649 14.4098 21.1191 14.5547 21.1191ZM11.5791 22.9189C11.237 22.1269 10.071 22.1521 9.78223 22.9951L9.39453 24.1338L9.35547 24.2383L9.28223 24.3916C9.30845 24.342 9.33426 24.2913 9.35547 24.2393L9.39453 24.1357L9.7832 22.9971C10.0718 22.1538 11.237 22.1278 11.5791 22.9199L11.6084 22.9971L11.9971 24.1357C12.0068 24.1643 12.0202 24.1917 12.0312 24.2197C12.0199 24.1912 12.007 24.1629 11.9971 24.1338L11.6084 22.9961L11.5791 22.9189ZM15.9014 22.4873C15.9189 22.5102 15.9342 22.5351 15.9473 22.5605C15.945 22.556 15.9439 22.5504 15.9414 22.5459L15.9023 22.4854C15.8932 22.4735 15.8812 22.464 15.8711 22.4531C15.8814 22.4642 15.8921 22.4752 15.9014 22.4873ZM13.9287 22.1543L13.4336 22.3232L13.376 22.3467C13.2908 22.3886 13.2197 22.456 13.1719 22.5381L13.1621 22.5596C13.1654 22.553 13.1682 22.5455 13.1719 22.5391C13.2198 22.4567 13.2914 22.3896 13.377 22.3477L13.4336 22.3242L13.9287 22.1562L14.0137 21.9033L13.9287 22.1543ZM10.6025 2.33203C11.0989 1.49442 12.1096 1.22714 12.9023 1.74512L13.0322 1.83887L18.9658 5.37012C19.6368 5.77153 20.3816 6.03509 21.1562 6.14551C21.6575 6.21658 22.2936 6.25681 23.04 6.26953L23.7061 6.27441C23.8214 6.27402 23.939 6.27295 24.0586 6.27148L24.8018 6.25586L25.5908 6.22852L26.4248 6.18945L27.2988 6.13867C27.4475 6.12933 27.5983 6.11961 27.75 6.10938C28.1722 6.08097 28.4404 6.29945 28.6074 6.58984C28.6748 6.7072 28.7209 6.83429 28.7607 6.9834C28.7832 7.0675 28.804 7.16205 28.8232 7.2666L28.877 7.6123L28.9258 8.03711L28.9697 8.54785L29.0049 9.12012L29.0342 9.74219L29.0586 10.6143L29.0703 11.3955L29.0693 11.8838L29.0576 12.5537L29.042 12.9482L29.0195 13.2949L28.9912 13.5859C28.9752 13.7164 28.9557 13.8239 28.9346 13.9053L28.9131 13.9785L27.6328 13.5166L27.6406 13.499L27.6465 13.4619L27.6592 13.3877L27.6611 13.375L27.6621 13.3623L27.6729 13.2119L27.6738 13.2021L27.6885 12.8545V12.8486L27.7012 12.2051L27.7021 12.2002L27.7051 11.4141L27.7041 11.4102L27.6982 10.7705V10.7666L27.6826 10.1172L27.6836 10.1143L27.6719 9.80176V9.79883L27.6445 9.20801V9.20605C27.6395 9.11116 27.6345 9.01714 27.6289 8.92676V8.92383L27.5928 8.41602L27.5918 8.41211C27.5851 8.33235 27.5776 8.25466 27.5703 8.18066V8.1748L27.5234 7.77637L27.4902 7.49609L27.208 7.5127L26.4375 7.55566L25.5244 7.59863V7.59766L24.6543 7.62598C23.2559 7.66006 22.0885 7.63232 21.207 7.5293L20.9648 7.49707C20.1298 7.378 19.322 7.11419 18.5811 6.71973L18.5801 6.7207L18.2676 6.54297L12.2861 2.97656C12.28 2.96857 12.2742 2.95833 12.2666 2.9502C12.2362 2.91869 12.175 2.87034 12.0898 2.85742H11.9961L11.9111 2.88379C11.8371 2.91927 11.7935 2.97842 11.7734 3.01465C11.7586 3.0417 11.7505 3.06872 11.7451 3.08887C11.6571 3.28641 11.6927 3.51026 11.8457 3.68457L11.8564 3.69629L11.8672 3.70605L11.9297 3.76367L11.9404 3.77441L11.9521 3.7832L19.8203 9.78906L7.74609 6.31543L7.73535 6.31152L7.72461 6.30957L7.66895 6.29785L7.64746 6.29395L7.625 6.29199C7.56184 6.28864 7.43813 6.3029 7.35059 6.41602C7.32251 6.45245 7.30571 6.49146 7.2959 6.52246L7.28223 6.58398L7.28027 6.5957L7.27051 6.68848C7.23069 7.04824 7.40606 7.44584 7.75879 7.59863L7.7666 7.60254L8.04785 7.71387L8.05664 7.7168L8.47461 7.86719L8.47949 7.86816L9.02637 8.05566L9.0293 8.05664L9.94434 8.35742V8.3584H9.94629L11.7061 8.91992L11.708 8.9209L13.1211 9.3623H13.1221L15.8906 10.2109L15.8916 10.2119L19.4971 11.3018L5.76855 11.1201L5.75977 11.1191L5.75195 11.1201L5.66309 11.1299C5.56727 11.1493 5.45365 11.2012 5.37988 11.3262C5.30205 11.4589 5.31275 11.6116 5.32617 11.7109C5.35027 11.8878 5.42719 12.0572 5.56836 12.1885C5.70816 12.318 5.89189 12.3929 6.09766 12.4209L6.1084 12.4219L6.11816 12.4229L16.5615 13.123L14.5869 15.9912C14.5051 16.1102 14.4763 16.2596 14.5098 16.4014V16.4023C14.6645 17.0496 14.8918 17.6054 15.1426 18.0361C15.3777 18.4399 15.6499 18.7603 15.9219 18.9316C15.9283 18.9374 15.9364 18.944 15.9443 18.9502C15.9615 18.9635 15.9987 18.9905 16.0498 19.0078C16.1037 19.0258 16.214 19.0441 16.3232 18.9746C16.3849 18.9352 16.4367 18.8721 16.458 18.792C16.4766 18.7209 16.4657 18.6595 16.4561 18.625C16.4382 18.5624 16.404 18.5177 16.3926 18.5029C16.3867 18.4955 16.3795 18.4886 16.374 18.4824L16.209 18.1963L16.1611 18.1123H16.1602C16.0094 17.8419 15.9022 17.6142 15.8252 17.3896C15.6882 16.9894 15.6644 16.6435 15.7754 16.3184H15.7764C15.8268 16.1746 15.9418 15.9985 16.1504 15.7656L16.3916 15.5127L16.6826 15.2305H16.6836L17.0361 14.9053H17.0371C17.2865 14.6795 17.5945 14.528 17.9248 14.4697L18.208 14.4297C19.5912 14.2788 20.5546 14.8819 20.9482 15.7334C21.3439 16.5904 21.2069 17.795 20.1943 18.9209L19.9795 19.1445L19.8369 19.2793L19.6826 19.4219L19.3975 19.416H19.3828L19.1621 19.4219L19.1562 19.4229L18.7979 19.4512C18.6798 19.4644 18.5626 19.4825 18.4512 19.5039L18.4453 19.5049L18.334 19.5283C18.32 19.5289 18.3001 19.5302 18.2812 19.5322C18.2666 19.5338 18.21 19.5403 18.1543 19.5664C18.1366 19.5747 18.0231 19.6268 17.9854 19.7646C17.9511 19.8905 18.0019 19.9861 18.042 20.0371L18.0752 20.0723C18.1243 20.1174 18.1794 20.1386 18.1924 20.1436C18.1988 20.146 18.2057 20.1477 18.2109 20.1494C18.3166 20.1959 18.4336 20.241 18.5566 20.2812L18.5625 20.2842L18.7549 20.3408L18.7617 20.3438C19.1212 20.443 19.4901 20.4988 19.8047 20.5146C19.9617 20.5225 20.1111 20.5208 20.2412 20.5078C20.366 20.4953 20.4967 20.4707 20.6035 20.4209H20.6045C20.8038 20.3268 21.0712 20.1582 21.376 19.9443L21.3799 19.9414L21.7656 19.6611L21.7695 19.6582C21.8384 19.6067 21.9095 19.5533 21.9814 19.498L21.9834 19.4961L22.4277 19.1465L22.4336 19.1426L22.9053 18.7549L22.9102 18.751L23.4023 18.332L23.4062 18.3291L23.9092 17.8848L23.9131 17.8818L24.418 17.4189L24.4219 17.4141L24.9199 16.9385L24.9219 16.9365C26.0673 15.8199 27.1268 14.62 27.5479 13.7168L27.5518 13.708L27.626 13.5332L27.6318 13.5186L28.9053 14C28.4835 15.1125 27.2101 16.6122 25.79 17.9961L25.2832 18.4785C25.1133 18.6373 24.9421 18.7941 24.7715 18.9473L24.2627 19.3955L23.7607 19.8213L23.2744 20.2168C23.1951 20.28 23.1164 20.3421 23.0391 20.4023L22.5898 20.7441C22.4449 20.8517 22.3048 20.953 22.1719 21.0459L21.793 21.3008C21.5556 21.4541 21.3491 21.5738 21.1826 21.6523C19.9132 22.2444 17.285 21.6606 16.5381 20.4961L16.502 20.4336L16.4385 20.4385C15.0168 20.5251 13.7883 18.9896 13.2402 16.9385L13.1836 16.7158C13.074 16.256 13.1434 15.7731 13.3721 15.3643L13.4648 15.2148L14.0811 14.3213L6.18945 13.793C5.05054 13.7652 4.21219 13.033 4.00488 12.0566L3.97559 11.8926C3.83387 10.8488 4.45957 9.89682 5.57715 9.76855L5.74023 9.75488L10.0156 9.8125L8.75977 9.40137L7.97461 9.13379L7.53223 8.97266L7.2168 8.84766C6.29934 8.45084 5.81145 7.48374 5.91602 6.53711C6.02903 5.51627 6.81765 4.7925 7.91602 4.96094L8.07617 4.99121L13.2354 6.47559L11.1211 4.86035C10.3401 4.25585 10.1408 3.27436 10.5234 2.47949L10.6025 2.33203ZM14.5547 21.333C14.4544 21.3329 14.3551 21.3638 14.2734 21.4219L14.2158 21.4717C14.2125 21.4749 14.2092 21.4791 14.2061 21.4824C14.2264 21.4613 14.2493 21.4411 14.2734 21.4238C14.3552 21.3657 14.4534 21.3339 14.5537 21.334C14.5843 21.334 14.6148 21.338 14.6445 21.3438C14.6368 21.3423 14.6289 21.3391 14.6211 21.3379L14.5547 21.333ZM21.2041 19.6992L20.8867 19.9131C20.984 19.8503 21.0899 19.7786 21.2031 19.6992L21.5898 19.4189L21.2041 19.6992ZM18.3125 15.7881L18.1621 15.8115C18.0844 15.8252 18.011 15.8608 17.9512 15.915L17.6641 16.1826L17.0713 16.7578C17.0667 16.7617 17.0635 16.7636 17.0635 16.7627L17.0664 16.7676L17.0928 16.8789C17.0986 16.899 17.1057 16.9223 17.1143 16.9473C17.1496 17.0504 17.2021 17.1678 17.2734 17.3047L17.4199 17.5674L17.5674 17.8203C17.6363 17.9378 17.6974 18.0595 17.75 18.1826L17.7812 18.2627L18.0078 18.2041L18.1953 18.1641C18.3893 18.1268 18.5882 18.1002 18.7881 18.082L19.1348 18.0596L19.1777 18.0146C20.3499 16.7373 19.784 15.6066 18.3125 15.7881ZM15.542 17.4873L15.6113 17.6719C15.5862 17.6102 15.5621 17.5488 15.541 17.4873L15.4893 17.3223C15.5045 17.3767 15.5231 17.4321 15.542 17.4873ZM24.7129 16.7227L24.2148 17.1973L23.7109 17.6602H23.71L24.2148 17.1973L24.7119 16.7227C24.8552 16.583 24.9974 16.4422 25.1357 16.3018C24.9974 16.4422 24.8562 16.583 24.7129 16.7227ZM16.1787 15.3008C16.0872 15.3925 16.004 15.4798 15.9297 15.5625C16.0038 15.4799 16.0863 15.3924 16.1777 15.3008L16.4434 15.0449L16.1787 15.3008ZM27.3506 13.415L27.2754 13.5898C27.2507 13.6428 27.2228 13.6976 27.1934 13.7529C27.2228 13.6976 27.2498 13.6427 27.2744 13.5898L27.3496 13.415L27.3613 13.3398H27.3623L27.3506 13.415ZM27.6328 13.5166L27.6318 13.5186L27.4219 13.4395L27.6328 13.5166ZM27.3887 12.8418H27.3877H27.3887ZM7.56445 6.81738C7.56682 6.87947 7.57876 6.94101 7.59766 6.99805C7.58833 6.97009 7.57969 6.94061 7.57422 6.91113L7.56445 6.81738Z" fill="black"/>
</svg>
