<svg width="15" height="9" viewBox="0 0 15 9" fill="none" xmlns="http://www.w3.org/2000/svg">
<path fill-rule="evenodd" clip-rule="evenodd" d="M10.1349 0.153094C10.259 0.261437 10.335 0.414637 10.3462 0.579009C10.3574 0.74338 10.3028 0.905465 10.1945 1.02962L3.68517 8.48594C3.62685 8.55275 3.5549 8.6063 3.47416 8.64299C3.39342 8.67968 3.30577 8.69867 3.21708 8.69867C3.1284 8.69867 3.04074 8.67968 2.96 8.64299C2.87926 8.6063 2.80731 8.55275 2.74899 8.48594L0.145081 5.50341C0.0406306 5.37875 -0.010779 5.2181 0.00188918 5.05596C0.0145574 4.89381 0.0902935 4.7431 0.212839 4.63617C0.335384 4.52924 0.494968 4.47462 0.657333 4.48404C0.819698 4.49345 0.971899 4.56615 1.08126 4.68653L3.21708 7.13303L9.25835 0.212744C9.36669 0.0886284 9.51989 0.012621 9.68427 0.00143504C9.84864 -0.00975091 10.0107 0.0448003 10.1349 0.153094ZM14.298 0.223515C14.5465 0.459631 14.5556 0.853159 14.3187 1.1017L7.21781 8.55801C7.15579 8.62315 7.08036 8.67405 6.99675 8.70718C6.91314 8.74032 6.82333 8.75491 6.73352 8.74995C6.64372 8.74499 6.55607 8.72059 6.47661 8.67844C6.39716 8.63629 6.32781 8.57739 6.27334 8.50582L5.91792 8.03939C5.82482 7.91802 5.77976 7.76657 5.79137 7.61405C5.80297 7.46152 5.87044 7.31864 5.98083 7.21276C6.09123 7.10687 6.2368 7.04543 6.38968 7.0402C6.54255 7.03497 6.69199 7.08631 6.80937 7.1844L13.419 0.244227C13.5326 0.124964 13.6889 0.0556997 13.8536 0.0516605C14.0183 0.0476212 14.1778 0.109137 14.2972 0.222686" fill="white"/>
</svg>
