<svg width="12" height="28" viewBox="0 0 12 28" fill="none" xmlns="http://www.w3.org/2000/svg">
<path d="M11.8239 0.999965C11.8527 1.23392 11.8045 1.46342 11.6877 1.66142L6.66957 6.86517C6.47992 7.06018 6.23628 7.16596 5.98807 7.18204C5.77477 7.19586 5.55818 7.14355 5.36982 7.02512L0.31095 1.86605C0.10323 1.65244 -0.000407219 1.37243 -0.000407219 1.09254C-0.000407219 0.812641 0.10323 0.532631 0.31095 0.319032C0.50059 0.124023 0.744226 0.018252 0.992441 0.00216681C1.20574 -0.0116558 1.42234 0.0406645 1.6107 0.159095L5.92118 4.54815L10.0342 0.319034C10.2239 0.124024 10.4675 0.018252 10.7157 0.00216679C10.9618 -0.0137806 11.2123 0.0582996 11.4187 0.218437C11.6601 0.464278 11.7912 0.733951 11.8239 0.999965Z" fill="#E1DBEE" fill-opacity="0.3"/>
<path d="M11.8239 11.184C11.8527 11.418 11.8045 11.6475 11.6877 11.8455L6.66957 17.0493C6.47992 17.2443 6.23628 17.35 5.98807 17.3661C5.77477 17.3799 5.55818 17.3276 5.36982 17.2092L0.31095 12.0501C0.10323 11.8365 -0.000407219 11.5565 -0.000407219 11.2766C-0.000407219 10.9967 0.10323 10.7167 0.31095 10.5031C0.50059 10.3081 0.744226 10.2023 0.992441 10.1862C1.20574 10.1724 1.42234 10.2247 1.6107 10.3432L5.92118 14.7322L10.0342 10.5031C10.2239 10.3081 10.4675 10.2023 10.7157 10.1862C10.9618 10.1703 11.2123 10.2424 11.4187 10.4025C11.6601 10.6484 11.7912 10.918 11.8239 11.184Z" fill="#E1DBEE" fill-opacity="0.6"/>
<path d="M11.8239 21.3686C11.8527 21.6026 11.8045 21.8321 11.6877 22.0301L6.66957 27.2338C6.47992 27.4288 6.23628 27.5346 5.98807 27.5507C5.77477 27.5645 5.55818 27.5122 5.36982 27.3938L0.31095 22.2347C0.10323 22.0211 -0.000407219 21.7411 -0.000407219 21.4612C-0.000407219 21.1813 0.10323 20.9013 0.31095 20.6877C0.50059 20.4927 0.744226 20.3869 0.992441 20.3708C1.20574 20.357 1.42234 20.4093 1.6107 20.5277L5.92118 24.9168L10.0342 20.6877C10.2239 20.4927 10.4675 20.3869 10.7157 20.3708C10.9618 20.3549 11.2123 20.427 11.4187 20.5871C11.6601 20.8329 11.7912 21.1026 11.8239 21.3686Z" fill="#E1DBEE"/>
</svg>
